<svg width="560" height="160" viewBox="0 0 560 160" xmlns="http://www.w3.org/2000/svg" role="img" aria-label="iGotchu logo">
  <path d="M80 24 C49 24 27 47 27 78 C27 116 80 166 80 166 C80 166 133 116 133 78 C133 47 111 24 80 24 Z" transform="scale(0.78) translate(8 6)" fill="#37e0a6"/>
  <path d="M52 64 C52 50 64 41 80 51 L97 62 L114 51 C130 41 142 50 142 64 C142 88 97 118 97 118 C97 118 52 88 52 64 Z" transform="scale(0.78) translate(8 6)" fill="#0b1120"/>
  <text x="148" y="98" font-family="'Space Grotesk','DejaVu Sans',sans-serif" font-size="74" font-weight="600" letter-spacing="-2" fill="#eaf1ff">i<tspan fill="#37e0a6">Gotchu</tspan></text>
</svg>
